<svg width="30" height="30" viewBox="0 0 30 30" fill="none" xmlns="http://www.w3.org/2000/svg">
<g clip-path="url(#clip0_73_7428)">
<path d="M8.75 30C10.1307 30 11.25 28.8807 11.25 27.5C11.25 26.1193 10.1307 25 8.75 25C7.36929 25 6.25 26.1193 6.25 27.5C6.25 28.8807 7.36929 30 8.75 30Z" fill="black"/>
<path d="M21.25 30C22.6307 30 23.75 28.8807 23.75 27.5C23.75 26.1193 22.6307 25 21.25 25C19.8693 25 18.75 26.1193 18.75 27.5C18.75 28.8807 19.8693 30 21.25 30Z" fill="black"/>
<path d="M27.2137 12.1575C27.0521 12.1273 26.8861 12.1294 26.7253 12.1638C26.5645 12.1982 26.4122 12.2641 26.2771 12.3579C26.142 12.4516 26.0268 12.5712 25.9382 12.7097C25.8497 12.8483 25.7895 13.003 25.7612 13.165C25.6054 14.0302 25.1504 14.8131 24.476 15.377C23.8015 15.9409 22.9504 16.2499 22.0712 16.25H6.7725L5.5975 6.25H16.25C16.5815 6.25 16.8995 6.1183 17.1339 5.88388C17.3683 5.64946 17.5 5.33152 17.5 5C17.5 4.66848 17.3683 4.35054 17.1339 4.11612C16.8995 3.8817 16.5815 3.75 16.25 3.75H5.3025L5.25 3.31C5.14228 2.39825 4.70382 1.55769 4.01773 0.94763C3.33164 0.337568 2.44559 0.000391046 1.5275 0L1.25 0C0.918479 0 0.600537 0.131696 0.366117 0.366117C0.131696 0.600537 0 0.918479 0 1.25C0 1.58152 0.131696 1.89946 0.366117 2.13388C0.600537 2.3683 0.918479 2.5 1.25 2.5H1.5275C1.83367 2.50004 2.12917 2.61245 2.35797 2.81589C2.58676 3.01934 2.73293 3.29969 2.76875 3.60375L4.48875 18.2288C4.66732 19.7497 5.3981 21.1522 6.54239 22.17C7.68667 23.1878 9.16482 23.75 10.6963 23.75H23.75C24.0815 23.75 24.3995 23.6183 24.6339 23.3839C24.8683 23.1495 25 22.8315 25 22.5C25 22.1685 24.8683 21.8505 24.6339 21.6161C24.3995 21.3817 24.0815 21.25 23.75 21.25H10.6963C9.92065 21.2501 9.16408 21.0098 8.53076 20.5621C7.89744 20.1143 7.41853 19.4812 7.16 18.75H22.0712C23.5364 18.7501 24.9551 18.2355 26.0794 17.296C27.2038 16.3565 27.9623 15.0519 28.2225 13.61C28.2517 13.4484 28.2488 13.2826 28.2139 13.1221C28.179 12.9616 28.1128 12.8096 28.0191 12.6747C27.9254 12.5398 27.8061 12.4247 27.6679 12.336C27.5297 12.2472 27.3754 12.1866 27.2137 12.1575Z" fill="black"/>
</g>
<defs>
<clipPath id="clip0_73_7428">
<rect width="30" height="30" fill="white"/>
</clipPath>
</defs>
</svg>
