<svg width="20" height="22" viewBox="0 0 20 22" fill="none" xmlns="http://www.w3.org/2000/svg">
<path d="M8.29714 8.07812V17.3594C8.29714 17.6441 8.06495 17.875 7.77857 17.875H6.74143C6.45505 17.875 6.22286 17.6441 6.22286 17.3594V8.07812C6.22286 7.79337 6.45505 7.5625 6.74143 7.5625H7.77857C8.06495 7.5625 8.29714 7.79337 8.29714 8.07812ZM12.6186 7.5625H11.5814C11.295 7.5625 11.0629 7.79337 11.0629 8.07812V17.3594C11.0629 17.6441 11.295 17.875 11.5814 17.875H12.6186C12.905 17.875 13.1371 17.6441 13.1371 17.3594V8.07812C13.1371 7.79337 12.905 7.5625 12.6186 7.5625ZM18.3229 3.4375C18.8957 3.4375 19.36 3.8992 19.36 4.46875V4.98438C19.36 5.26913 19.1278 5.5 18.8414 5.5H17.9771V19.9375C17.9771 21.0766 17.0485 22 15.9029 22H3.45714C2.31153 22 1.38286 21.0766 1.38286 19.9375V5.5H0.518571C0.23219 5.5 0 5.26913 0 4.98438V4.46875C0 3.8992 0.464338 3.4375 1.03714 3.4375H4.25276L5.72283 1.00134C5.90712 0.695935 6.16781 0.443185 6.47952 0.267705C6.79123 0.0922253 7.14332 -3.42658e-06 7.50153 0L11.8585 0C12.2167 -3.42658e-06 12.5688 0.0922253 12.8805 0.267705C13.1922 0.443185 13.4529 0.695935 13.6372 1.00134L15.1072 3.4375H18.3229ZM6.67181 3.4375H12.6882L11.9341 2.18767C11.911 2.14949 11.8784 2.1179 11.8395 2.09596C11.8005 2.07403 11.7565 2.0625 11.7117 2.0625H7.64837C7.60359 2.0625 7.55958 2.07403 7.52062 2.09596C7.48165 2.1179 7.44907 2.14949 7.42603 2.18767L6.67181 3.4375ZM15.9029 5.5H3.45714V19.6797C3.45714 19.7481 3.48446 19.8136 3.53309 19.862C3.58171 19.9103 3.64766 19.9375 3.71643 19.9375H15.6436C15.7123 19.9375 15.7783 19.9103 15.8269 19.862C15.8755 19.8136 15.9029 19.7481 15.9029 19.6797V5.5Z" fill="#9DA2AB"/>
</svg>
