<svg width="27" height="22" viewBox="0 0 27 22" fill="none" xmlns="http://www.w3.org/2000/svg">
<path d="M13.8793 0H1.72877C0.773894 0 0 0.773894 0 1.72877C0 2.68364 0.773894 3.45754 1.72877 3.45754H13.8793C14.8342 3.45754 15.6081 2.68364 15.6081 1.72877C15.6081 0.773894 14.8342 0 13.8793 0Z" fill="#585D63"/>
<path d="M24.7087 9.57166H1.72877C0.773895 9.57166 0 10.3456 0 11.3004C0 12.2553 0.773895 13.0292 1.72877 13.0292H24.7087C25.6636 13.0292 26.4375 12.2553 26.4375 11.3004C26.4375 10.3456 25.6636 9.57166 24.7087 9.57166Z" fill="#585D63"/>
<path d="M19.5459 18.5424H1.72877C0.773895 18.5424 0 19.3163 0 20.2712C0 21.2261 0.773895 22 1.72877 22H19.5459C20.5007 22 21.2746 21.2261 21.2746 20.2712C21.2746 19.3163 20.5007 18.5424 19.5459 18.5424Z" fill="#585D63"/>
</svg>
