<svg width="21" height="22" viewBox="0 0 21 22" fill="none" xmlns="http://www.w3.org/2000/svg">
<path d="M19.9737 1.48752C19.5493 1.05931 19.0208 0.749034 18.44 0.587253C17.8593 0.425472 17.2464 0.417769 16.6618 0.564902C12.1296 1.75472 7.97889 4.08841 4.60728 7.3424C3.94403 8.00964 3.42683 8.80755 3.08853 9.68542C2.75023 10.5633 2.59824 11.5019 2.64221 12.4417C2.70485 13.8059 3.18369 15.1182 4.01435 16.2021L0.266984 19.9564C0.183457 20.0371 0.116834 20.1336 0.0710003 20.2403C0.0251671 20.347 0.00104207 20.4617 3.30194e-05 20.5778C-0.000976028 20.694 0.0211511 20.8091 0.0651233 20.9166C0.109095 21.0241 0.174032 21.1217 0.256144 21.2038C0.338256 21.2859 0.435899 21.3509 0.543376 21.3948C0.650852 21.4388 0.76601 21.4609 0.88213 21.4599C0.998249 21.4589 1.11301 21.4348 1.2197 21.389C1.3264 21.3431 1.4229 21.2765 1.50357 21.193L5.25006 17.4466C6.3984 18.3431 7.81425 18.8287 9.27115 18.8257C10.2352 18.8117 11.1871 18.608 12.0724 18.2261C12.9577 17.8442 13.7591 17.2917 14.4309 16.6C18.2788 12.7522 20.4503 6.59032 20.8972 4.7722C21.0424 4.19168 21.0337 3.58329 20.8717 3.0072C20.7097 2.43111 20.4002 1.90728 19.9737 1.48752V1.48752ZM4.38952 12.3612C4.35661 11.664 4.46905 10.9676 4.71973 10.3161C4.9704 9.66471 5.35381 9.07253 5.84561 8.57722C6.21991 8.20555 6.60908 7.85662 7.00699 7.51555V13.2165L5.26668 14.9568C4.73636 14.1911 4.43238 13.2916 4.38952 12.3612V12.3612ZM13.1681 15.3862C12.3352 16.2914 11.2066 16.8698 9.98537 17.0172C8.76413 17.1647 7.53034 16.8717 6.50589 16.1907L8.49894 14.1977L10.8672 11.8295H15.9062C15.1141 13.1032 14.1968 14.2947 13.1681 15.3862ZM19.2023 4.34981C18.6752 6.34373 17.9118 8.26758 16.9285 10.0805H12.6162L15.4961 7.20073C15.5796 7.12006 15.6462 7.02356 15.692 6.91686C15.7379 6.81017 15.762 6.69542 15.763 6.5793C15.764 6.46318 15.7419 6.34802 15.6979 6.24055C15.6539 6.13308 15.589 6.03543 15.5069 5.95332C15.4248 5.87121 15.3271 5.80628 15.2197 5.76231C15.1122 5.71833 14.997 5.69621 14.8809 5.69722C14.7648 5.69823 14.65 5.72235 14.5433 5.76818C14.4366 5.81402 14.3401 5.88064 14.2595 5.96416L9.88682 10.3367L8.75605 11.4675V6.15568C11.2843 4.38382 14.1023 3.06659 17.0833 2.26321C17.2217 2.22837 17.3639 2.21046 17.5066 2.20987C17.7358 2.21036 17.9626 2.25611 18.1741 2.34451C18.3855 2.4329 18.5775 2.56219 18.7388 2.72496C18.9518 2.93128 19.1065 3.19021 19.1873 3.47553C19.2681 3.76085 19.2721 4.06245 19.1988 4.34981H19.2023Z" fill="white"/>
</svg>
