<svg width="23" height="22" viewBox="0 0 23 22" fill="none" xmlns="http://www.w3.org/2000/svg">
<path d="M22.3002 9.9L20.9002 3.1C20.9002 3 20.8002 2.9 20.7002 2.8C20.6002 2.7 20.5002 2.6 20.4002 2.6L13.8002 0.2C13.4002 0 13.0002 0 12.6002 0C12.2002 0.1 11.8002 0.3 11.5002 0.5L2.30018 8.5C1.60018 9.2 1.10018 10.1 1.00018 11.1C0.900178 12.1 1.30018 13.1 1.90018 13.9L6.90018 19.7C7.60018 20.5 8.50018 20.9 9.50018 21C10.5002 21.1 11.5002 20.7 12.3002 20.1L21.5002 12.2C21.8002 11.9 22.0002 11.6 22.2002 11.2C22.3002 10.8 22.3002 10.3 22.3002 9.9ZM11.3002 18.9C10.8002 19.3 10.2002 19.5 9.60018 19.5C9.00018 19.5 8.40018 19.2 8.00018 18.7L3.00018 12.9C2.60018 12.4 2.40018 11.8 2.40018 11.2C2.40018 10.6 2.70018 10 3.20018 9.6L12.4002 1.7C12.5002 1.6 12.6002 1.5 12.8002 1.5C12.9002 1.5 13.1002 1.5 13.2002 1.5L19.4002 3.8L20.7002 10.2C20.7002 10.3 20.7002 10.5 20.7002 10.6C20.7002 10.7 20.6002 10.8 20.5002 10.9L11.3002 18.9Z" fill="white"/>
<path d="M14.5999 7.7C15.1999 8.4 16.3999 8.5 17.0999 7.9C17.7999 7.3 17.8999 6.1 17.2999 5.4C16.6999 4.7 15.4999 4.6 14.7999 5.2C13.9999 5.8 13.8999 6.9 14.5999 7.7Z" fill="white"/>
</svg>
