<svg width="17" height="20" viewBox="0 0 17 20" fill="none" xmlns="http://www.w3.org/2000/svg">
<path d="M8.37821 5.00122C7.719 5.00122 7.07459 5.1967 6.52647 5.56294C5.97836 5.92918 5.55115 6.44973 5.29888 7.05876C5.04661 7.6678 4.9806 8.33796 5.10921 8.98451C5.23782 9.63106 5.55526 10.225 6.02139 10.6911C6.48753 11.1572 7.08142 11.4747 7.72797 11.6033C8.37452 11.7319 9.04468 11.6659 9.65372 11.4136C10.2627 11.1613 10.7833 10.7341 11.1495 10.186C11.5158 9.63789 11.7113 8.99348 11.7113 8.33427C11.7113 7.45029 11.3601 6.60251 10.735 5.97745C10.11 5.35238 9.26219 5.00122 8.37821 5.00122ZM8.37821 10.0008C8.04861 10.0008 7.7264 9.90305 7.45234 9.71993C7.17828 9.53681 6.96468 9.27653 6.83855 8.97202C6.71241 8.6675 6.67941 8.33242 6.74371 8.00914C6.80802 7.68587 6.96674 7.38892 7.1998 7.15586C7.43287 6.92279 7.72982 6.76407 8.05309 6.69977C8.37636 6.63546 8.71145 6.66846 9.01596 6.7946C9.32048 6.92074 9.58076 7.13434 9.76388 7.4084C9.947 7.68245 10.0447 8.00466 10.0447 8.33427C10.0447 8.77626 9.86916 9.20014 9.55662 9.51268C9.24409 9.82521 8.8202 10.0008 8.37821 10.0008Z" fill="#F5F5F5"/>
<path d="M8.37844 19.9999C7.67679 20.0035 6.98449 19.839 6.35951 19.52C5.73452 19.2011 5.19505 18.737 4.78625 18.1668C1.61069 13.7863 0 10.4933 0 8.37844C0 6.15634 0.882726 4.02525 2.45399 2.45399C4.02525 0.882726 6.15634 0 8.37844 0C10.6005 0 12.7316 0.882726 14.3029 2.45399C15.8742 4.02525 16.7569 6.15634 16.7569 8.37844C16.7569 10.4933 15.1462 13.7863 11.9706 18.1668C11.5618 18.737 11.0224 19.2011 10.3974 19.52C9.7724 19.839 9.0801 20.0035 8.37844 19.9999ZM8.37844 1.81901C6.63894 1.82099 4.97125 2.51289 3.74124 3.7429C2.51122 4.97292 1.81933 6.64061 1.81734 8.38011C1.81734 10.055 3.39471 13.1522 6.25779 17.101C6.50085 17.4358 6.81972 17.7083 7.18831 17.8962C7.5569 18.0841 7.96473 18.182 8.37844 18.182C8.79216 18.182 9.19999 18.0841 9.56858 17.8962C9.93717 17.7083 10.256 17.4358 10.4991 17.101C13.3622 13.1522 14.9395 10.055 14.9395 8.38011C14.9376 6.64061 14.2457 4.97292 13.0157 3.7429C11.7856 2.51289 10.1179 1.82099 8.37844 1.81901Z" fill="#F5F5F5"/>
</svg>
