<svg width="21" height="16" viewBox="0 0 21 16" fill="none" xmlns="http://www.w3.org/2000/svg">
<path d="M16.625 0H4.375C3.2151 0.00138853 2.10311 0.462489 1.28294 1.28216C0.462772 2.10183 0.00138938 3.21314 0 4.37233L0 11.6277C0.00138938 12.7869 0.462772 13.8982 1.28294 14.7178C2.10311 15.5375 3.2151 15.9986 4.375 16H16.625C17.7849 15.9986 18.8969 15.5375 19.7171 14.7178C20.5372 13.8982 20.9986 12.7869 21 11.6277V4.37233C20.9986 3.21314 20.5372 2.10183 19.7171 1.28216C18.8969 0.462489 17.7849 0.00138853 16.625 0ZM4.375 1.74893H16.625C17.1489 1.74996 17.6606 1.90766 18.0941 2.20173C18.5276 2.49581 18.8631 2.9128 19.0575 3.39905L12.3568 8.12904C11.7715 8.55337 11.0742 8.73152 10.5 8.73152C9.92578 8.73152 9.22852 8.53288 8.64325 8.12904L1.9425 3.39905C2.13688 2.9128 2.47241 2.49581 2.90592 2.20173C3.33942 1.90766 3.85106 1.74996 4.375 1.74893ZM16.625 14.2511H4.375C3.67881 14.2511 3.01113 13.9747 2.51884 13.4827C2.02656 12.9907 1.75 12.3234 1.75 11.6277V5.68403L7.406 9.36553C8.46973 10.029 9.53613 10.4801 10.5 10.4801C11.4639 10.4801 12.5713 10.07 13.594 9.36553L19.25 5.68403V11.6277C19.25 12.3234 18.9734 12.9907 18.4812 13.4827C17.9889 13.9747 17.3212 14.2511 16.625 14.2511Z" fill="#F5F5F5"/>
</svg>
