<svg width="22" height="22" viewBox="0 0 22 22" fill="none" xmlns="http://www.w3.org/2000/svg">
<path d="M18.76 5.77113L16.08 5.77113C16.08 4.34957 15.5153 2.98624 14.5101 1.98104C13.5049 0.975845 12.1416 0.411133 10.72 0.411133C9.29844 0.411133 7.9351 0.975845 6.92991 1.98104C5.92471 2.98624 5.36 4.34957 5.36 5.77113L2.68 5.77113C1.96922 5.77113 1.28755 6.05349 0.784954 6.55609C0.282356 7.05868 4.4512e-08 7.74035 4.88287e-08 8.45113L1.03083e-07 17.3845C0.0014186 18.5687 0.472468 19.704 1.30982 20.5413C2.14718 21.3787 3.28247 21.8497 4.46667 21.8511L16.9733 21.8511C18.1575 21.8497 19.2928 21.3787 20.1302 20.5413C20.9675 19.704 21.4386 18.5687 21.44 17.3845L21.44 8.45113C21.44 7.74035 21.1576 7.05868 20.655 6.55609C20.1525 6.05349 19.4708 5.77113 18.76 5.77113ZM10.72 2.1978C11.6677 2.1978 12.5766 2.57427 13.2467 3.2444C13.9169 3.91453 14.2933 4.82343 14.2933 5.77113L7.14667 5.77113C7.14667 4.82343 7.52314 3.91453 8.19327 3.2444C8.8634 2.57427 9.77229 2.1978 10.72 2.1978ZM19.6533 17.3845C19.6533 18.0952 19.371 18.7769 18.8684 19.2795C18.3658 19.7821 17.6841 20.0645 16.9733 20.0645L4.46667 20.0645C3.75589 20.0645 3.07422 19.7821 2.57162 19.2795C2.06902 18.7769 1.78667 18.0952 1.78667 17.3845L1.78667 8.45113C1.78667 8.21421 1.88079 7.98698 2.04832 7.81945C2.21585 7.65192 2.44307 7.5578 2.68 7.5578L5.36 7.5578L5.36 9.34447C5.36 9.58139 5.45412 9.80862 5.62165 9.97615C5.78918 10.1437 6.01641 10.2378 6.25333 10.2378C6.49026 10.2378 6.71748 10.1437 6.88502 9.97615C7.05255 9.80862 7.14667 9.58139 7.14667 9.34447L7.14667 7.5578L14.2933 7.5578L14.2933 9.34447C14.2933 9.58139 14.3875 9.80862 14.555 9.97615C14.7225 10.1437 14.9497 10.2378 15.1867 10.2378C15.4236 10.2378 15.6508 10.1437 15.8183 9.97615C15.9859 9.80862 16.08 9.58139 16.08 9.34447L16.08 7.5578L18.76 7.5578C18.9969 7.5578 19.2242 7.65192 19.3917 7.81945C19.5592 7.98698 19.6533 8.21421 19.6533 8.45113L19.6533 17.3845Z" fill="#F1F5F6"/>
</svg>
