<svg width="20" height="20" viewBox="0 0 20 20" fill="none" xmlns="http://www.w3.org/2000/svg">
<path d="M13.9886 11.868C16.3894 8.47789 15.5865 3.78357 12.1964 1.38335C8.80625 -1.01686 4.11193 -0.214494 1.71172 3.1762C-0.688489 6.56632 0.113876 11.2601 3.50457 13.6603C5.92428 15.3734 9.12341 15.5053 11.6756 13.9981L17.221 19.5103C17.8198 20.1406 18.816 20.1658 19.4463 19.567C20.0766 18.9688 20.1019 17.9726 19.5037 17.3423C19.4847 17.3223 19.4664 17.3039 19.4463 17.285L13.9886 11.868ZM7.84559 12.3819C5.16665 12.3825 2.9947 10.2122 2.99298 7.53329C2.99241 4.85434 5.16263 2.68239 7.84215 2.68125C10.5177 2.6801 12.6885 4.84688 12.6936 7.52239C12.6982 10.2019 10.5291 12.3773 7.84903 12.3819H7.84559Z" fill="#5E8E22"/>
</svg>
