<svg width="22" height="22" viewBox="0 0 22 22" fill="none" xmlns="http://www.w3.org/2000/svg">
<path d="M10.7193 0.459961C8.59926 0.459961 6.52678 1.08864 4.764 2.2665C3.00121 3.44435 1.62729 5.11848 0.815966 7.07719C0.00464454 9.03589 -0.207634 11.1912 0.205974 13.2705C0.619582 15.3499 1.6405 17.2599 3.13963 18.759C4.63875 20.2581 6.54876 21.2791 8.6281 21.6927C10.7075 22.1063 12.8628 21.894 14.8215 21.0827C16.7802 20.2714 18.4543 18.8974 19.6321 17.1346C20.81 15.3719 21.4387 13.2994 21.4387 11.1793C21.4356 8.3373 20.3053 5.61258 18.2957 3.60298C16.2861 1.59338 13.5613 0.463035 10.7193 0.459961V0.459961ZM10.7193 20.1121C8.9526 20.1121 7.22554 19.5882 5.75655 18.6066C4.28757 17.6251 3.14263 16.23 2.46653 14.5977C1.79043 12.9655 1.61353 11.1694 1.9582 9.4366C2.30288 7.70381 3.15364 6.11214 4.40291 4.86287C5.65218 3.6136 7.24385 2.76283 8.97664 2.41816C10.7094 2.07348 12.5055 2.25038 14.1378 2.92648C15.77 3.60259 17.1651 4.74752 18.1467 6.21651C19.1282 7.6855 19.6521 9.41256 19.6521 11.1793C19.6495 13.5476 18.7076 15.8182 17.0329 17.4929C15.3582 19.1675 13.0877 20.1095 10.7193 20.1121V20.1121Z" fill="white"/>
<path d="M11.3598 4.98265C10.8447 4.88879 10.3152 4.9093 9.80892 5.04271C9.30259 5.17613 8.83177 5.4192 8.42979 5.75471C8.0278 6.09023 7.70446 6.51 7.48266 6.98431C7.26086 7.45862 7.14601 7.97588 7.14624 8.49949C7.14624 8.7364 7.24035 8.96361 7.40788 9.13113C7.5754 9.29865 7.80261 9.39276 8.03952 9.39276C8.27643 9.39276 8.50364 9.29865 8.67116 9.13113C8.83868 8.96361 8.9328 8.7364 8.9328 8.49949C8.93257 8.23666 8.99034 7.97702 9.10198 7.73909C9.21362 7.50115 9.37638 7.29078 9.57865 7.12297C9.78093 6.95516 10.0177 6.83405 10.2722 6.76826C10.5267 6.70248 10.7925 6.69365 11.0508 6.74241C11.4036 6.81091 11.7281 6.98304 11.9827 7.23683C12.2372 7.49061 12.4104 7.81452 12.48 8.16719C12.5503 8.53736 12.5018 8.92029 12.3413 9.26122C12.1809 9.60215 11.9168 9.88362 11.5867 10.0654C11.0402 10.382 10.5886 10.8394 10.2789 11.39C9.96924 11.9405 9.81286 12.564 9.82607 13.1954V13.8592C9.82607 14.0961 9.92019 14.3233 10.0877 14.4908C10.2552 14.6583 10.4824 14.7524 10.7194 14.7524C10.9563 14.7524 11.1835 14.6583 11.351 14.4908C11.5185 14.3233 11.6126 14.0961 11.6126 13.8592V13.1954C11.6014 12.8846 11.6723 12.5763 11.8181 12.3015C11.964 12.0268 12.1796 11.7953 12.4434 11.6304C13.0906 11.275 13.6117 10.7277 13.9352 10.064C14.2587 9.40022 14.3686 8.65256 14.2498 7.92379C14.1311 7.19502 13.7894 6.52096 13.2719 5.99428C12.7544 5.46761 12.0864 5.1142 11.3598 4.98265V4.98265Z" fill="white"/>
<path d="M11.6127 16.539C11.6127 16.0457 11.2128 15.6457 10.7194 15.6457C10.2261 15.6457 9.82617 16.0457 9.82617 16.539C9.82617 17.0324 10.2261 17.4323 10.7194 17.4323C11.2128 17.4323 11.6127 17.0324 11.6127 16.539Z" fill="white"/>
</svg>
